<?xml version="1.0" encoding="UTF-8"?>
<svg xmlns="http://www.w3.org/2000/svg" xmlns:xlink="http://www.w3.org/1999/xlink" width="62px" height="62px" viewBox="0 0 62 62" version="1.1">
<defs>
<clipPath id="clip1">
  <path d="M 16 24 L 32 24 L 32 56 L 16 56 Z M 16 24 "/>
</clipPath>
<clipPath id="clip2">
  <path d="M 62 31 C 62 48.121094 48.121094 62 31 62 C 13.878906 62 0 48.121094 0 31 C 0 13.878906 13.878906 0 31 0 C 48.121094 0 62 13.878906 62 31 Z M 62 31 "/>
</clipPath>
<clipPath id="clip3">
  <path d="M 30 24 L 46 24 L 46 55 L 30 55 Z M 30 24 "/>
</clipPath>
<clipPath id="clip4">
  <path d="M 62 31 C 62 48.121094 48.121094 62 31 62 C 13.878906 62 0 48.121094 0 31 C 0 13.878906 13.878906 0 31 0 C 48.121094 0 62 13.878906 62 31 Z M 62 31 "/>
</clipPath>
<clipPath id="clip5">
  <path d="M 18 14 L 44 14 L 44 40 L 18 40 Z M 18 14 "/>
</clipPath>
<clipPath id="clip6">
  <path d="M 62 31 C 62 48.121094 48.121094 62 31 62 C 13.878906 62 0 48.121094 0 31 C 0 13.878906 13.878906 0 31 0 C 48.121094 0 62 13.878906 62 31 Z M 62 31 "/>
</clipPath>
<clipPath id="clip7">
  <path d="M 13 43 L 49 43 L 49 62 L 13 62 Z M 13 43 "/>
</clipPath>
<clipPath id="clip8">
  <path d="M 62 31 C 62 48.121094 48.121094 62 31 62 C 13.878906 62 0 48.121094 0 31 C 0 13.878906 13.878906 0 31 0 C 48.121094 0 62 13.878906 62 31 Z M 62 31 "/>
</clipPath>
<clipPath id="clip9">
  <path d="M 31 43 L 49 43 L 49 62 L 31 62 Z M 31 43 "/>
</clipPath>
<clipPath id="clip10">
  <path d="M 62 31 C 62 48.121094 48.121094 62 31 62 C 13.878906 62 0 48.121094 0 31 C 0 13.878906 13.878906 0 31 0 C 48.121094 0 62 13.878906 62 31 Z M 62 31 "/>
</clipPath>
<clipPath id="clip11">
  <path d="M 27 36 L 35 36 L 35 48 L 27 48 Z M 27 36 "/>
</clipPath>
<clipPath id="clip12">
  <path d="M 62 31 C 62 48.121094 48.121094 62 31 62 C 13.878906 62 0 48.121094 0 31 C 0 13.878906 13.878906 0 31 0 C 48.121094 0 62 13.878906 62 31 Z M 62 31 "/>
</clipPath>
<clipPath id="clip13">
  <path d="M 31 36 L 35 36 L 35 48 L 31 48 Z M 31 36 "/>
</clipPath>
<clipPath id="clip14">
  <path d="M 62 31 C 62 48.121094 48.121094 62 31 62 C 13.878906 62 0 48.121094 0 31 C 0 13.878906 13.878906 0 31 0 C 48.121094 0 62 13.878906 62 31 Z M 62 31 "/>
</clipPath>
<clipPath id="clip15">
  <path d="M 62 31 C 62 48.121094 48.121094 62 31 62 C 13.878906 62 0 48.121094 0 31 C 0 13.878906 13.878906 0 31 0 C 48.121094 0 62 13.878906 62 31 Z M 62 31 "/>
</clipPath>
<filter id="alpha" filterUnits="objectBoundingBox" x="0%" y="0%" width="100%" height="100%">
  <feColorMatrix type="matrix" in="SourceGraphic" values="0 0 0 0 1 0 0 0 0 1 0 0 0 0 1 0 0 0 1 0"/>
</filter>
<mask id="mask0">
  <g filter="url(#alpha)">
<rect x="0" y="0" width="62" height="62" style="fill:rgb(0%,0%,0%);fill-opacity:0.101961;stroke:none;"/>
  </g>
</mask>
<clipPath id="clip16">
  <rect x="0" y="0" width="62" height="62"/>
</clipPath>
<g id="surface5" clip-path="url(#clip16)">
<path style=" stroke:none;fill-rule:nonzero;fill:rgb(86.666667%,67.45098%,54.901961%);fill-opacity:1;" d="M 27.503906 41.65625 C 28.132812 43.464844 30.671875 44.5 32.535156 44.5 C 33.210938 44.5 33.867188 44.386719 34.496094 44.179688 L 34.496094 36.234375 L 27.503906 36.234375 Z M 27.503906 41.65625 "/>
</g>
<clipPath id="clip17">
  <path d="M 22 17 L 40 17 L 40 43 L 22 43 Z M 22 17 "/>
</clipPath>
<clipPath id="clip18">
  <path d="M 62 31 C 62 48.121094 48.121094 62 31 62 C 13.878906 62 0 48.121094 0 31 C 0 13.878906 13.878906 0 31 0 C 48.121094 0 62 13.878906 62 31 Z M 62 31 "/>
</clipPath>
<clipPath id="clip19">
  <path d="M 36 26 L 43 26 L 43 34 L 36 34 Z M 36 26 "/>
</clipPath>
<clipPath id="clip20">
  <path d="M 62 31 C 62 48.121094 48.121094 62 31 62 C 13.878906 62 0 48.121094 0 31 C 0 13.878906 13.878906 0 31 0 C 48.121094 0 62 13.878906 62 31 Z M 62 31 "/>
</clipPath>
<clipPath id="clip21">
  <path d="M 19 26 L 26 26 L 26 34 L 19 34 Z M 19 26 "/>
</clipPath>
<clipPath id="clip22">
  <path d="M 62 31 C 62 48.121094 48.121094 62 31 62 C 13.878906 62 0 48.121094 0 31 C 0 13.878906 13.878906 0 31 0 C 48.121094 0 62 13.878906 62 31 Z M 62 31 "/>
</clipPath>
<clipPath id="clip23">
  <path d="M 31 17 L 40 17 L 40 43 L 31 43 Z M 31 17 "/>
</clipPath>
<clipPath id="clip24">
  <path d="M 62 31 C 62 48.121094 48.121094 62 31 62 C 13.878906 62 0 48.121094 0 31 C 0 13.878906 13.878906 0 31 0 C 48.121094 0 62 13.878906 62 31 Z M 62 31 "/>
</clipPath>
<clipPath id="clip25">
  <path d="M 21 16 L 41 16 L 41 29 L 21 29 Z M 21 16 "/>
</clipPath>
<clipPath id="clip26">
  <path d="M 62 31 C 62 48.121094 48.121094 62 31 62 C 13.878906 62 0 48.121094 0 31 C 0 13.878906 13.878906 0 31 0 C 48.121094 0 62 13.878906 62 31 Z M 62 31 "/>
</clipPath>
<clipPath id="clip27">
  <path d="M 13 45 L 49 45 L 49 62 L 13 62 Z M 13 45 "/>
</clipPath>
<clipPath id="clip28">
  <path d="M 62 31 C 62 48.121094 48.121094 62 31 62 C 13.878906 62 0 48.121094 0 31 C 0 13.878906 13.878906 0 31 0 C 48.121094 0 62 13.878906 62 31 Z M 62 31 "/>
</clipPath>
</defs>
<g id="surface1">
<path style=" stroke:none;fill-rule:nonzero;fill:rgb(55.294118%,77.254902%,83.921569%);fill-opacity:1;" d="M 62 31 C 62 48.121094 48.121094 62 31 62 C 13.878906 62 0 48.121094 0 31 C 0 13.878906 13.878906 0 31 0 C 48.121094 0 62 13.878906 62 31 Z M 62 31 "/>
<g clip-path="url(#clip1)" clip-rule="nonzero">
<g clip-path="url(#clip2)" clip-rule="nonzero">
<path style=" stroke:none;fill-rule:nonzero;fill:rgb(18.039216%,34.117647%,42.745098%);fill-opacity:1;" d="M 19.371094 32.144531 C 19.371094 37.199219 16.597656 37.332031 16.792969 40.679688 C 17.015625 44.386719 19.914062 44.394531 19.914062 46.945312 C 19.914062 49.492188 17.246094 52.351562 19.609375 55.097656 C 29.992188 55.097656 31.003906 55.097656 31.003906 55.097656 L 31.003906 24.171875 Z M 19.371094 32.144531 "/>
</g>
</g>
<g clip-path="url(#clip3)" clip-rule="nonzero">
<g clip-path="url(#clip4)" clip-rule="nonzero">
<path style=" stroke:none;fill-rule:nonzero;fill:rgb(18.039216%,34.117647%,42.745098%);fill-opacity:1;" d="M 42.628906 31.976562 C 42.628906 37.03125 45.402344 37.164062 45.203125 40.511719 C 44.984375 44.21875 42.085938 44.230469 42.085938 46.777344 C 42.085938 49.328125 44.753906 52.183594 42.390625 54.929688 C 32.007812 54.929688 30.996094 54.929688 30.996094 54.929688 L 30.996094 24.007812 Z M 42.628906 31.976562 "/>
</g>
</g>
<g clip-path="url(#clip5)" clip-rule="nonzero">
<g clip-path="url(#clip6)" clip-rule="nonzero">
<path style=" stroke:none;fill-rule:nonzero;fill:rgb(18.039216%,34.117647%,42.745098%);fill-opacity:1;" d="M 43.691406 26.859375 C 43.691406 19.804688 38.007812 14.085938 31 14.085938 C 23.992188 14.085938 18.308594 19.804688 18.308594 26.859375 C 18.308594 33.914062 23.992188 39.632812 31 39.632812 C 38.007812 39.632812 43.691406 33.914062 43.691406 26.859375 Z M 43.691406 26.859375 "/>
</g>
</g>
<g clip-path="url(#clip7)" clip-rule="nonzero">
<g clip-path="url(#clip8)" clip-rule="nonzero">
<path style=" stroke:none;fill-rule:nonzero;fill:rgb(94.509804%,78.823529%,64.705882%);fill-opacity:1;" d="M 45.847656 50.082031 C 43.847656 46.296875 31 43.921875 31 43.921875 C 31 43.921875 18.152344 46.296875 16.152344 50.082031 C 14.675781 55.328125 13.441406 62 13.441406 62 L 48.558594 62 C 48.558594 62 47.722656 54.847656 45.847656 50.082031 Z M 45.847656 50.082031 "/>
</g>
</g>
<g clip-path="url(#clip9)" clip-rule="nonzero">
<g clip-path="url(#clip10)" clip-rule="nonzero">
<path style=" stroke:none;fill-rule:nonzero;fill:rgb(89.411765%,71.372549%,57.254902%);fill-opacity:1;" d="M 31 43.921875 C 31 43.921875 43.847656 46.296875 45.847656 50.082031 C 47.722656 54.847656 48.558594 62 48.558594 62 L 31 62 Z M 31 43.921875 "/>
</g>
</g>
<g clip-path="url(#clip11)" clip-rule="nonzero">
<g clip-path="url(#clip12)" clip-rule="nonzero">
<path style=" stroke:none;fill-rule:nonzero;fill:rgb(94.509804%,78.823529%,64.705882%);fill-opacity:1;" d="M 27.503906 36.234375 L 34.496094 36.234375 L 34.496094 47.941406 L 27.503906 47.941406 Z M 27.503906 36.234375 "/>
</g>
</g>
<g clip-path="url(#clip13)" clip-rule="nonzero">
<g clip-path="url(#clip14)" clip-rule="nonzero">
<path style=" stroke:none;fill-rule:nonzero;fill:rgb(89.411765%,71.372549%,57.254902%);fill-opacity:1;" d="M 31 36.234375 L 34.496094 36.234375 L 34.496094 47.941406 L 31 47.941406 Z M 31 36.234375 "/>
</g>
</g>
<g clip-path="url(#clip15)" clip-rule="nonzero">
<use xlink:href="#surface5" mask="url(#mask0)"/>
</g>
<g clip-path="url(#clip17)" clip-rule="nonzero">
<g clip-path="url(#clip18)" clip-rule="nonzero">
<path style=" stroke:none;fill-rule:nonzero;fill:rgb(94.509804%,78.823529%,64.705882%);fill-opacity:1;" d="M 39.992188 28.847656 C 39.992188 21.535156 35.96875 17.375 31 17.375 C 26.035156 17.375 22.007812 21.535156 22.007812 28.847656 C 22.007812 36.15625 26.035156 42.085938 31 42.085938 C 35.964844 42.085938 39.992188 36.160156 39.992188 28.847656 Z M 39.992188 28.847656 "/>
</g>
</g>
<g clip-path="url(#clip19)" clip-rule="nonzero">
<g clip-path="url(#clip20)" clip-rule="nonzero">
<path style=" stroke:none;fill-rule:nonzero;fill:rgb(89.411765%,71.372549%,57.254902%);fill-opacity:1;" d="M 38.625 33.914062 C 36.992188 33.734375 35.894531 31.867188 36.167969 29.746094 C 36.441406 27.625 37.988281 26.050781 39.617188 26.234375 C 41.246094 26.414062 42.347656 28.277344 42.070312 30.398438 C 41.796875 32.519531 40.253906 34.09375 38.625 33.914062 Z M 38.625 33.914062 "/>
</g>
</g>
<g clip-path="url(#clip21)" clip-rule="nonzero">
<g clip-path="url(#clip22)" clip-rule="nonzero">
<path style=" stroke:none;fill-rule:nonzero;fill:rgb(94.509804%,78.823529%,64.705882%);fill-opacity:1;" d="M 19.992188 30.398438 C 19.71875 28.277344 20.816406 26.414062 22.445312 26.234375 C 24.078125 26.050781 25.621094 27.625 25.894531 29.746094 C 26.171875 31.867188 25.070312 33.734375 23.441406 33.914062 C 21.808594 34.09375 20.265625 32.519531 19.992188 30.398438 Z M 19.992188 30.398438 "/>
</g>
</g>
<g clip-path="url(#clip23)" clip-rule="nonzero">
<g clip-path="url(#clip24)" clip-rule="nonzero">
<path style=" stroke:none;fill-rule:nonzero;fill:rgb(89.411765%,71.372549%,57.254902%);fill-opacity:1;" d="M 39.992188 28.847656 C 39.992188 21.535156 35.96875 17.375 31 17.375 L 31 42.085938 C 35.964844 42.085938 39.992188 36.160156 39.992188 28.847656 Z M 39.992188 28.847656 "/>
</g>
</g>
<g clip-path="url(#clip25)" clip-rule="nonzero">
<g clip-path="url(#clip26)" clip-rule="nonzero">
<path style=" stroke:none;fill-rule:nonzero;fill:rgb(18.039216%,34.117647%,42.745098%);fill-opacity:1;" d="M 40.734375 28.019531 C 40.734375 28 40.738281 27.976562 40.738281 27.957031 C 40.738281 22.285156 36.898438 16.296875 31.523438 16.296875 C 26.148438 16.296875 21.273438 22.285156 21.273438 27.957031 C 21.273438 27.976562 21.273438 28 21.273438 28.019531 Z M 40.734375 28.019531 "/>
</g>
</g>
<g clip-path="url(#clip27)" clip-rule="nonzero">
<g clip-path="url(#clip28)" clip-rule="nonzero">
<path style=" stroke:none;fill-rule:nonzero;fill:rgb(98.039216%,34.509804%,16.470588%);fill-opacity:1;" d="M 48.558594 62 C 48.558594 62 47.722656 54.847656 45.847656 50.082031 C 44.75 48.003906 40.394531 46.355469 36.679688 45.289062 L 30.988281 49.757812 L 25.066406 45.363281 C 21.410156 46.429688 17.226562 48.054688 16.152344 50.082031 C 14.675781 55.332031 13.441406 62 13.441406 62 Z M 48.558594 62 "/>
</g>
</g>
</g>
</svg>
