<svg width="131" height="98" viewBox="0 0 131 98" fill="none" xmlns="http://www.w3.org/2000/svg">
<path d="M120.577 82.0249C120.171 82.3965 119.756 82.7575 119.333 83.1079C119.261 83.168 119.188 83.2258 119.115 83.287C117.603 84.5087 116.016 85.6255 114.363 86.6304L114.054 86.8178C113.98 86.865 113.906 86.9086 113.828 86.9522C112.101 87.9904 110.31 88.9462 108.498 89.8513L108.478 89.8619L108.341 89.929C106.88 90.6589 105.396 91.3574 103.89 92.0244L103.854 92.0385C103.175 92.3363 102.496 92.6262 101.817 92.9083C101.54 93.0261 101.262 93.1357 100.984 93.2477C100.46 93.4563 99.9346 93.6613 99.4051 93.8581L99.3395 93.8841L99.2263 93.9253L99.0849 93.9795C97.7038 94.4933 96.3041 94.9679 94.886 95.4031L94.8611 95.4102C93.8722 95.7103 92.8769 95.9881 91.8752 96.2434L91.7383 96.2788C90.2674 96.6488 88.7727 96.967 87.269 97.2216L86.9228 97.2793C85.823 97.4592 84.7156 97.6061 83.6008 97.7201C77.3336 98.3505 70.9917 97.8379 64.763 96.9587C52.1856 95.1816 39.7745 91.85 28.4553 86.6281C26.2829 85.6264 24.1527 84.5539 22.0647 83.4108C22.0478 83.4014 22.0331 83.3919 22.0161 83.3837C20.7662 82.6994 19.5333 81.9864 18.3173 81.2447C17.9609 81.0302 17.6068 80.811 17.2549 80.5907C16.8219 80.3188 16.3908 80.0438 15.9616 79.7657C15.3959 79.398 14.8301 79.0209 14.2644 78.6355L13.9996 78.4517L13.8978 78.3798C13.7541 78.2796 13.6127 78.1795 13.4701 78.0781C8.15221 74.3069 3.41023 69.7367 1.16992 64.0175C-1.41888 57.4179 0.237592 49.0506 6.64962 45.1498C8.85372 43.8063 11.4154 43.0768 14.0042 42.4746L14.2689 42.4134C14.7068 42.3132 15.1447 42.2165 15.5803 42.1199C17.1066 41.7829 18.6409 41.4482 20.1605 41.0746C20.9525 40.8801 21.7366 40.6763 22.5162 40.4559L22.8353 40.364C24.7154 39.8386 26.5541 39.1641 28.3353 38.3464H28.3467C28.5379 38.258 28.7268 38.1661 28.9124 38.0718C29.0323 38.0129 29.1523 37.9539 29.2722 37.8891C31.1957 36.8921 33.2323 35.5097 34.7994 33.8622C34.925 33.7302 35.0472 33.5959 35.166 33.4615C35.2577 33.3566 35.3482 33.2506 35.4353 33.1445C36.534 31.8104 37.2943 30.3291 37.4391 28.757C37.4879 28.2287 37.465 27.6959 37.3712 27.1743C37.1936 26.1855 37.0216 25.218 36.8949 24.274C36.6584 22.5004 36.5781 20.8045 36.9062 19.1699C37.24 17.5035 37.9969 15.8996 39.4418 14.344C39.6598 14.1083 39.8948 13.8726 40.1467 13.6369C41.3152 12.5691 42.6374 11.699 44.065 11.0584C44.2415 10.9798 44.4192 10.9012 44.5979 10.8227C48.5671 9.1492 53.3363 8.80036 57.792 9.03135C61.9548 9.25448 66.0912 9.85384 70.1544 10.8227C70.4769 10.8981 70.7993 10.977 71.1195 11.0584C74.576 11.9305 77.977 13.0258 81.3027 14.3381C89.9449 17.7239 98.1017 22.4249 105.722 27.6127C105.797 27.6633 105.871 27.714 105.948 27.7659C106.267 27.9819 106.583 28.1988 106.898 28.4164C107.506 28.8367 108.11 29.2598 108.708 29.6856L109.112 29.972C109.311 30.1134 109.509 30.2552 109.706 30.3974L110.312 30.8347C110.341 30.8525 110.368 30.8726 110.394 30.8948L110.91 31.2672C111.209 31.484 111.505 31.702 111.803 31.9212L112.441 32.3926C112.573 32.4916 112.707 32.5894 112.839 32.6896L113.518 33.2058L113.67 33.3236C113.701 33.3472 113.733 33.3708 113.763 33.3967L113.783 33.4097C115.622 34.8156 117.418 36.2734 119.101 37.8184L119.318 38.0188L119.34 38.04C119.524 38.2097 119.707 38.3817 119.887 38.555C122.084 40.6385 124.053 42.8777 125.662 45.3525C133.053 56.7839 130.859 72.6122 120.577 82.0249Z" fill="#EAF3FF"/>
<g opacity="0.3">
<mask id="path-2-inside-1_4183_32801" fill="white">
<path fill-rule="evenodd" clip-rule="evenodd" d="M23.3792 26.2617C22.4946 26.2617 21.7775 26.9787 21.7773 27.8633C21.7772 28.7482 22.4945 29.4655 23.3793 29.4655L29.4643 29.4652C31.3361 29.4651 32.9577 30.763 33.3675 32.5895L36.1332 44.9161C36.1432 44.9863 36.1552 45.0567 36.1691 45.1273L39.0715 59.8554L43.1446 76.9913C43.573 78.7939 45.1833 80.0663 47.0362 80.0663H91.9448C93.8031 80.0663 95.4166 78.7866 95.8398 76.9772L103.256 45.2648C103.843 42.7553 101.939 40.3539 99.3615 40.3539H40.0936C39.3636 40.3539 38.6863 40.547 38.1043 40.8816L35.3252 29.3261C34.8929 27.5285 33.2849 26.2614 31.436 26.2614L23.3792 26.2617Z"/>
</mask>
<path fill-rule="evenodd" clip-rule="evenodd" d="M23.3792 26.2617C22.4946 26.2617 21.7775 26.9787 21.7773 27.8633C21.7772 28.7482 22.4945 29.4655 23.3793 29.4655L29.4643 29.4652C31.3361 29.4651 32.9577 30.763 33.3675 32.5895L36.1332 44.9161C36.1432 44.9863 36.1552 45.0567 36.1691 45.1273L39.0715 59.8554L43.1446 76.9913C43.573 78.7939 45.1833 80.0663 47.0362 80.0663H91.9448C93.8031 80.0663 95.4166 78.7866 95.8398 76.9772L103.256 45.2648C103.843 42.7553 101.939 40.3539 99.3615 40.3539H40.0936C39.3636 40.3539 38.6863 40.547 38.1043 40.8816L35.3252 29.3261C34.8929 27.5285 33.2849 26.2614 31.436 26.2614L23.3792 26.2617Z" fill="#EAF3FF"/>
<path d="M21.7773 27.8633L24.7773 27.8638V27.8638L21.7773 27.8633ZM23.3792 26.2617L23.3791 23.2617L23.3792 26.2617ZM23.3793 29.4655L23.3795 32.4655H23.3795L23.3793 29.4655ZM29.4643 29.4652L29.4641 26.4652L29.4643 29.4652ZM33.3675 32.5895L30.4403 33.2462V33.2462L33.3675 32.5895ZM36.1332 44.9161L39.1028 44.4903L39.0861 44.374L39.0604 44.2593L36.1332 44.9161ZM36.1691 45.1273L39.1125 44.5472L39.1125 44.5472L36.1691 45.1273ZM39.0715 59.8554L36.1282 60.4354L36.1394 60.4925L36.1529 60.5491L39.0715 59.8554ZM43.1446 76.9913L40.2259 77.685L40.2259 77.685L43.1446 76.9913ZM95.8398 76.9772L92.9186 76.294V76.294L95.8398 76.9772ZM103.256 45.2648L100.335 44.5816V44.5816L103.256 45.2648ZM38.1043 40.8816L35.1874 41.5831L36.1246 45.4797L39.5992 43.4826L38.1043 40.8816ZM35.3252 29.3261L32.4084 30.0276V30.0276L35.3252 29.3261ZM31.436 26.2614L31.4361 29.2614L31.436 26.2614ZM24.7773 27.8638C24.7772 28.6358 24.1513 29.2617 23.3793 29.2617L23.3791 23.2617C20.8379 23.2617 18.7777 25.3216 18.7773 27.8629L24.7773 27.8638ZM23.3792 26.4655C24.1514 26.4654 24.7775 27.0915 24.7773 27.8638L18.7773 27.8629C18.7769 30.4048 20.8376 32.4656 23.3795 32.4655L23.3792 26.4655ZM29.4641 26.4652L23.3792 26.4655L23.3795 32.4655L29.4645 32.4652L29.4641 26.4652ZM36.2947 31.9327C35.5776 28.7365 32.7398 26.465 29.4641 26.4652L29.4645 32.4652C29.9324 32.4651 30.3378 32.7896 30.4403 33.2462L36.2947 31.9327ZM39.0604 44.2593L36.2947 31.9327L30.4403 33.2462L33.2059 45.5729L39.0604 44.2593ZM39.1125 44.5472C39.1087 44.5278 39.1055 44.5089 39.1028 44.4903L33.1635 45.3419C33.181 45.4638 33.2017 45.5856 33.2257 45.7073L39.1125 44.5472ZM42.0149 59.2753L39.1125 44.5472L33.2257 45.7073L36.1282 60.4354L42.0149 59.2753ZM46.0633 76.2975L41.9902 59.1616L36.1529 60.5491L40.2259 77.685L46.0633 76.2975ZM47.0362 77.0663C46.573 77.0663 46.1704 76.7482 46.0633 76.2975L40.2259 77.685C40.9757 80.8396 43.7937 83.0663 47.0362 83.0663V77.0663ZM91.9448 77.0663H47.0362V83.0663H91.9448V77.0663ZM92.9186 76.294C92.8128 76.7464 92.4094 77.0663 91.9448 77.0663V83.0663C95.1967 83.0663 98.0204 80.8268 98.7609 77.6604L92.9186 76.294ZM100.335 44.5816L92.9186 76.294L98.7609 77.6604L106.178 45.948L100.335 44.5816ZM99.3615 43.3539C100.006 43.3539 100.482 43.9542 100.335 44.5816L106.178 45.948C107.205 41.5564 103.872 37.3539 99.3615 37.3539V43.3539ZM40.0936 43.3539H99.3615V37.3539H40.0936V43.3539ZM39.5992 43.4826C39.738 43.4028 39.9014 43.3539 40.0936 43.3539V37.3539C38.8258 37.3539 37.6347 37.6913 36.6093 38.2806L39.5992 43.4826ZM32.4084 30.0276L35.1874 41.5831L41.0211 40.1801L38.2421 28.6246L32.4084 30.0276ZM31.4361 29.2614C31.8983 29.2614 32.3003 29.5782 32.4084 30.0276L38.2421 28.6246C37.4855 25.4788 34.6715 23.2614 31.4359 23.2614L31.4361 29.2614ZM23.3793 29.2617L31.4361 29.2614L31.4359 23.2614L23.3791 23.2617L23.3793 29.2617Z" fill="#000101" mask="url(#path-2-inside-1_4183_32801)"/>
<path d="M101.218 42.7825C101.279 42.7911 101.322 42.801 101.353 42.8098L91.9195 76.1164C91.9195 76.1166 91.9194 76.1167 91.9194 76.1169C91.8234 76.4519 91.517 76.6827 91.1686 76.6827H45.956L41.4453 59.4668L38.0815 42.7742H99.9217C100.051 42.7742 100.204 42.7699 100.351 42.7658C100.446 42.7631 100.539 42.7605 100.622 42.7591C100.856 42.7553 101.058 42.7595 101.218 42.7825Z" fill="#EAF3FF" stroke="#000101"/>
<mask id="path-5-inside-2_4183_32801" fill="white">
<path d="M53.796 80.0666L48.0391 40.453L48.6874 40.3542L54.4443 79.9678L53.796 80.0666Z"/>
</mask>
<path d="M53.796 80.0666L48.0391 40.453L48.6874 40.3542L54.4443 79.9678L53.796 80.0666Z" fill="#80B7FF"/>
<path d="M53.796 80.0666L49.8376 80.6419L50.4169 84.628L54.3989 84.0209L53.796 80.0666ZM48.0391 40.453L47.4362 36.4987L43.5094 37.0974L44.0806 41.0283L48.0391 40.453ZM48.6874 40.3542L52.6458 39.7789L52.0665 35.7928L48.0845 36.3999L48.6874 40.3542ZM54.4443 79.9678L55.0472 83.9221L58.974 83.3234L58.4027 79.3925L54.4443 79.9678ZM57.7544 79.4913L51.9975 39.8778L44.0806 41.0283L49.8376 80.6419L57.7544 79.4913ZM48.6419 44.4073L49.2902 44.3085L48.0845 36.3999L47.4362 36.4987L48.6419 44.4073ZM44.729 40.9295L50.4859 80.543L58.4027 79.3925L52.6458 39.7789L44.729 40.9295ZM53.8414 76.0135L53.1931 76.1123L54.3989 84.0209L55.0472 83.9221L53.8414 76.0135Z" fill="#000101" mask="url(#path-5-inside-2_4183_32801)"/>
<mask id="path-7-inside-3_4183_32801" fill="white">
<path d="M85.7891 80.0666L85.1895 79.9688L90.3545 40.3542L90.9542 40.452L85.7891 80.0666Z"/>
</mask>
<path d="M85.7891 80.0666L85.1895 79.9688L90.3545 40.3542L90.9542 40.452L85.7891 80.0666Z" fill="#80B7FF"/>
<path d="M85.7891 80.0666L85.1452 84.0144L89.2216 84.6793L89.7556 80.5838L85.7891 80.0666ZM85.1895 79.9688L81.223 79.4516L80.7222 83.293L84.5455 83.9166L85.1895 79.9688ZM90.3545 40.3542L90.9984 36.4064L86.922 35.7415L86.388 39.837L90.3545 40.3542ZM90.9542 40.452L94.9206 40.9692L95.4214 37.1278L91.5981 36.5042L90.9542 40.452ZM86.4331 76.1188L85.8334 76.021L84.5455 83.9166L85.1452 84.0144L86.4331 76.1188ZM89.1559 80.4859L94.3209 40.8713L86.388 39.837L81.223 79.4516L89.1559 80.4859ZM89.7106 44.302L90.3102 44.3998L91.5981 36.5042L90.9984 36.4064L89.7106 44.302ZM86.9877 39.9348L81.8227 79.5495L89.7556 80.5838L94.9206 40.9692L86.9877 39.9348Z" fill="#000101" mask="url(#path-7-inside-3_4183_32801)"/>
<mask id="path-9-inside-4_4183_32801" fill="white">
<path d="M70.4569 40.3542H69.8164V80.0666H70.4569V40.3542Z"/>
</mask>
<path d="M70.4569 40.3542H69.8164V80.0666H70.4569V40.3542Z" fill="#80B7FF"/>
<path d="M69.8164 40.3542V36.3542H65.8164V40.3542H69.8164ZM70.4569 40.3542H74.4569V36.3542H70.4569V40.3542ZM70.4569 80.0666V84.0666H74.4569V80.0666H70.4569ZM69.8164 80.0666H65.8164V84.0666H69.8164V80.0666ZM69.8164 44.3542H70.4569V36.3542H69.8164V44.3542ZM66.4569 40.3542V80.0666H74.4569V40.3542H66.4569ZM70.4569 76.0666H69.8164V84.0666H70.4569V76.0666ZM73.8164 80.0666V40.3542H65.8164V80.0666H73.8164Z" fill="#000101" mask="url(#path-9-inside-4_4183_32801)"/>
<mask id="path-11-inside-5_4183_32801" fill="white">
<path d="M37.2672 49.319L37.2656 49.9708L102.087 50.1276L102.088 49.4759L37.2672 49.319Z"/>
</mask>
<path d="M37.2672 49.319L37.2656 49.9708L102.087 50.1276L102.088 49.4759L37.2672 49.319Z" fill="#80B7FF"/>
<path d="M37.2656 49.9708L33.2656 49.9611L33.2559 53.9611L37.2559 53.9708L37.2656 49.9708ZM37.2672 49.319L37.2769 45.319L33.2769 45.3093L33.2672 49.3093L37.2672 49.319ZM102.088 49.4759L106.088 49.4855L106.098 45.4855L102.098 45.4759L102.088 49.4759ZM102.087 50.1276L102.077 54.1276L106.077 54.1373L106.087 50.1373L102.087 50.1276ZM41.2656 49.9805L41.2672 49.3287L33.2672 49.3093L33.2656 49.9611L41.2656 49.9805ZM37.2575 53.319L102.079 53.4758L102.098 45.4759L37.2769 45.319L37.2575 53.319ZM98.0884 49.4662L98.0868 50.118L106.087 50.1373L106.088 49.4855L98.0884 49.4662ZM102.096 46.1277L37.2753 45.9708L37.2559 53.9708L102.077 54.1276L102.096 46.1277Z" fill="#000101" mask="url(#path-11-inside-5_4183_32801)"/>
<mask id="path-13-inside-6_4183_32801" fill="white">
<path d="M40.1637 60.2179L40.1621 60.8697L98.3099 61.0104L98.3114 60.3586L40.1637 60.2179Z"/>
</mask>
<path d="M40.1637 60.2179L40.1621 60.8697L98.3099 61.0104L98.3114 60.3586L40.1637 60.2179Z" fill="#80B7FF"/>
<path d="M40.1621 60.8697L36.1621 60.86L36.1524 64.86L40.1524 64.8697L40.1621 60.8697ZM40.1637 60.2179L40.1734 56.2179L36.1734 56.2082L36.1637 60.2082L40.1637 60.2179ZM98.3114 60.3586L102.311 60.3683L102.321 56.3683L98.3211 56.3586L98.3114 60.3586ZM98.3099 61.0104L98.3002 65.0104L102.3 65.0201L102.31 61.0201L98.3099 61.0104ZM44.1621 60.8794L44.1637 60.2276L36.1637 60.2082L36.1621 60.86L44.1621 60.8794ZM40.154 64.2179L98.3018 64.3586L98.3211 56.3586L40.1734 56.2179L40.154 64.2179ZM94.3115 60.3489L94.3099 61.0007L102.31 61.0201L102.311 60.3683L94.3115 60.3489ZM98.3196 57.0104L40.1718 56.8697L40.1524 64.8697L98.3002 65.0104L98.3196 57.0104Z" fill="#000101" mask="url(#path-13-inside-6_4183_32801)"/>
<mask id="path-15-inside-7_4183_32801" fill="white">
<path d="M97.5483 69.4526L41.6465 69.8345L41.6509 70.4863L97.5528 70.1044L97.5483 69.4526Z"/>
</mask>
<path d="M97.5483 69.4526L41.6465 69.8345L41.6509 70.4863L97.5528 70.1044L97.5483 69.4526Z" fill="#80B7FF"/>
<path d="M41.6465 69.8345L41.6191 65.8346L37.6192 65.8619L37.6466 69.8618L41.6465 69.8345ZM97.5483 69.4526L101.548 69.4253L101.521 65.4254L97.521 65.4527L97.5483 69.4526ZM97.5528 70.1044L97.5802 74.1043L101.58 74.077L101.553 70.0771L97.5528 70.1044ZM41.6509 70.4863L37.651 70.5136L37.6784 74.5135L41.6783 74.4862L41.6509 70.4863ZM41.6738 73.8344L97.5757 73.4525L97.521 65.4527L41.6191 65.8346L41.6738 73.8344ZM93.5484 69.4799L93.5529 70.1317L101.553 70.0771L101.548 69.4253L93.5484 69.4799ZM97.5254 66.1045L41.6236 66.4864L41.6783 74.4862L97.5802 74.1043L97.5254 66.1045ZM45.6508 70.459L45.6464 69.8072L37.6466 69.8618L37.651 70.5136L45.6508 70.459Z" fill="#000101" mask="url(#path-15-inside-7_4183_32801)"/>
<path fill-rule="evenodd" clip-rule="evenodd" d="M57.0064 84.549C57.0064 87.0253 54.999 89.0327 52.5227 89.0327C50.0465 89.0327 48.0391 87.0253 48.0391 84.549C48.0391 82.0728 50.0465 80.0654 52.5227 80.0654C54.999 80.0654 57.0064 82.0728 57.0064 84.549ZM55.0848 84.549C55.0848 85.964 53.9377 87.1111 52.5227 87.1111C51.1077 87.1111 49.9606 85.964 49.9606 84.549C49.9606 83.134 51.1077 81.9869 52.5227 81.9869C53.9377 81.9869 55.0848 83.134 55.0848 84.549Z" fill="#0314B3"/>
<path fill-rule="evenodd" clip-rule="evenodd" d="M93.5161 84.549C93.5161 87.0253 91.5087 89.0327 89.0325 89.0327C86.5562 89.0327 84.5488 87.0253 84.5488 84.549C84.5488 82.0728 86.5562 80.0654 89.0325 80.0654C91.5087 80.0654 93.5161 82.0728 93.5161 84.549ZM91.5946 84.549C91.5946 85.964 90.4475 87.1111 89.0325 87.1111C87.6175 87.1111 86.4704 85.964 86.4704 84.549C86.4704 83.134 87.6175 81.9869 89.0325 81.9869C90.4475 81.9869 91.5946 83.134 91.5946 84.549Z" fill="#0314B3"/>
</g>
<path fill-rule="evenodd" clip-rule="evenodd" d="M22.7396 25.6211C21.855 25.6212 21.1378 26.3382 21.1377 27.2228C21.1376 28.1076 21.8548 28.825 22.7397 28.825L28.8247 28.8246C30.6965 28.8245 32.3181 30.1225 32.7278 31.9489L35.4935 44.2756C35.5036 44.3458 35.5156 44.4162 35.5295 44.4867L38.4319 59.2148L42.5049 76.3507C42.9334 78.1533 44.5437 79.4258 46.3965 79.4258H91.3052C93.1634 79.4258 94.7769 78.1461 95.2001 76.3367L102.617 44.6242C103.204 42.1148 101.299 39.7133 98.7218 39.7133H39.454C38.724 39.7133 38.0467 39.9065 37.4646 40.2411L34.6856 28.6856C34.2533 26.888 32.6453 25.6209 30.7964 25.6209L22.7396 25.6211Z" fill="#072AD8"/>
<path d="M38.1297 46.4337C37.6238 43.9542 39.5184 41.634 42.049 41.634H96.759C99.3491 41.634 101.256 44.058 100.647 46.5754L93.8982 74.4446C93.4637 76.2393 91.8571 77.5033 90.0106 77.5033H48.3719C46.531 77.5033 44.9278 76.2467 44.4878 74.4591L40.7444 59.2482L38.1297 46.4337Z" fill="#EAF3FF"/>
<path d="M36.8311 41.6337L40.6742 59.5682L42.7559 67.5748L43.7967 71.578L44.1971 73.3395L44.5173 74.4604L44.8376 75.5813L90.5289 76.5422C91.1008 76.5422 91.6033 76.1632 91.7606 75.6134L101.204 42.2741C101.438 41.4557 100.133 41.6337 99.282 41.6337H36.8311Z" fill="#FCFDFF"/>
<path fill-rule="evenodd" clip-rule="evenodd" d="M56.3667 83.9085C56.3667 86.3848 54.3593 88.3922 51.8831 88.3922C49.4068 88.3922 47.3994 86.3848 47.3994 83.9085C47.3994 81.4322 49.4068 79.4248 51.8831 79.4248C54.3593 79.4248 56.3667 81.4322 56.3667 83.9085ZM54.4452 83.9085C54.4452 85.3235 53.2981 86.4706 51.8831 86.4706C50.4681 86.4706 49.321 85.3235 49.321 83.9085C49.321 82.4935 50.4681 81.3464 51.8831 81.3464C53.2981 81.3464 54.4452 82.4935 54.4452 83.9085Z" fill="#072AD8"/>
<path fill-rule="evenodd" clip-rule="evenodd" d="M92.8765 83.9085C92.8765 86.3848 90.8691 88.3922 88.3928 88.3922C85.9166 88.3922 83.9092 86.3848 83.9092 83.9085C83.9092 81.4322 85.9166 79.4248 88.3928 79.4248C90.8691 79.4248 92.8765 81.4322 92.8765 83.9085ZM90.9549 83.9085C90.9549 85.3235 89.8078 86.4706 88.3928 86.4706C86.9778 86.4706 85.8307 85.3235 85.8307 83.9085C85.8307 82.4935 86.9778 81.3464 88.3928 81.3464C89.8078 81.3464 90.9549 82.4935 90.9549 83.9085Z" fill="#072AD8"/>
<mask id="path-24-inside-8_4183_32801" fill="white">
<path d="M53.1563 79.4261L47.3994 39.8125L48.0477 39.7137L53.8046 79.3272L53.1563 79.4261Z"/>
</mask>
<path d="M53.1563 79.4261L47.3994 39.8125L48.0477 39.7137L53.8046 79.3272L53.1563 79.4261Z" fill="#80B7FF"/>
<path d="M53.1563 79.4261L49.1979 80.0013L49.7772 83.9875L53.7592 83.3804L53.1563 79.4261ZM47.3994 39.8125L46.7965 35.8582L42.8697 36.4569L43.441 40.3878L47.3994 39.8125ZM48.0477 39.7137L52.0061 39.1384L51.4268 35.1523L47.4448 35.7593L48.0477 39.7137ZM53.8046 79.3272L54.4075 83.2815L58.3343 82.6829L57.7631 78.752L53.8046 79.3272ZM57.1148 78.8508L51.3578 39.2372L43.441 40.3878L49.1979 80.0013L57.1148 78.8508ZM48.0023 43.7668L48.6506 43.668L47.4448 35.7593L46.7965 35.8582L48.0023 43.7668ZM44.0893 40.2889L49.8462 79.9025L57.7631 78.752L52.0061 39.1384L44.0893 40.2889ZM53.2018 75.3729L52.5535 75.4718L53.7592 83.3804L54.4075 83.2815L53.2018 75.3729Z" fill="#072AD8" mask="url(#path-24-inside-8_4183_32801)"/>
<mask id="path-26-inside-9_4183_32801" fill="white">
<path d="M85.1495 79.4261L84.5498 79.3283L89.7148 39.7137L90.3145 39.8115L85.1495 79.4261Z"/>
</mask>
<path d="M85.1495 79.4261L84.5498 79.3283L89.7148 39.7137L90.3145 39.8115L85.1495 79.4261Z" fill="#80B7FF"/>
<path d="M85.1495 79.4261L84.5055 83.3739L88.5819 84.0388L89.1159 79.9432L85.1495 79.4261ZM84.5498 79.3283L80.5834 78.8111L80.0825 82.6525L83.9059 83.2761L84.5498 79.3283ZM89.7148 39.7137L90.3587 35.7658L86.2824 35.1009L85.7484 39.1965L89.7148 39.7137ZM90.3145 39.8115L94.2809 40.3286L94.7818 36.4873L90.9584 35.8636L90.3145 39.8115ZM85.7934 75.4782L85.1937 75.3804L83.9059 83.2761L84.5055 83.3739L85.7934 75.4782ZM88.5162 79.8454L93.6813 40.2308L85.7484 39.1965L80.5834 78.8111L88.5162 79.8454ZM89.0709 43.6615L89.6706 43.7593L90.9584 35.8636L90.3587 35.7658L89.0709 43.6615ZM86.3481 39.2943L81.1831 78.9089L89.1159 79.9432L94.2809 40.3286L86.3481 39.2943Z" fill="#072AD8" mask="url(#path-26-inside-9_4183_32801)"/>
<mask id="path-28-inside-10_4183_32801" fill="white">
<path d="M69.8173 39.7137H69.1768V79.4261H69.8173V39.7137Z"/>
</mask>
<path d="M69.8173 39.7137H69.1768V79.4261H69.8173V39.7137Z" fill="#80B7FF"/>
<path d="M69.1768 39.7137V35.7137H65.1768V39.7137H69.1768ZM69.8173 39.7137H73.8173V35.7137H69.8173V39.7137ZM69.8173 79.4261V83.4261H73.8173V79.4261H69.8173ZM69.1768 79.4261H65.1768V83.4261H69.1768V79.4261ZM69.1768 43.7137H69.8173V35.7137H69.1768V43.7137ZM65.8173 39.7137V79.4261H73.8173V39.7137H65.8173ZM69.8173 75.4261H69.1768V83.4261H69.8173V75.4261ZM73.1768 79.4261V39.7137H65.1768V79.4261H73.1768Z" fill="#072AD8" mask="url(#path-28-inside-10_4183_32801)"/>
<mask id="path-30-inside-11_4183_32801" fill="white">
<path d="M36.6276 48.6785L36.626 49.3303L101.447 49.4871L101.449 48.8353L36.6276 48.6785Z"/>
</mask>
<path d="M36.6276 48.6785L36.626 49.3303L101.447 49.4871L101.449 48.8353L36.6276 48.6785Z" fill="#80B7FF"/>
<path d="M36.626 49.3303L32.626 49.3206L32.6163 53.3206L36.6163 53.3302L36.626 49.3303ZM36.6276 48.6785L36.6372 44.6785L32.6373 44.6688L32.6276 48.6688L36.6276 48.6785ZM101.449 48.8353L105.449 48.845L105.458 44.845L101.458 44.8353L101.449 48.8353ZM101.447 49.4871L101.437 53.4871L105.437 53.4968L105.447 49.4968L101.447 49.4871ZM40.626 49.3399L40.6275 48.6882L32.6276 48.6688L32.626 49.3206L40.626 49.3399ZM36.6179 52.6785L101.439 52.8353L101.458 44.8353L36.6372 44.6785L36.6179 52.6785ZM97.4487 48.8256L97.4471 49.4774L105.447 49.4968L105.449 48.845L97.4487 48.8256ZM101.457 45.4871L36.6357 45.3303L36.6163 53.3302L101.437 53.4871L101.457 45.4871Z" fill="#072AD8" mask="url(#path-30-inside-11_4183_32801)"/>
<mask id="path-32-inside-12_4183_32801" fill="white">
<path d="M39.524 59.5774L39.5225 60.2292L97.6702 60.3699L97.6718 59.7181L39.524 59.5774Z"/>
</mask>
<path d="M39.524 59.5774L39.5225 60.2292L97.6702 60.3699L97.6718 59.7181L39.524 59.5774Z" fill="#80B7FF"/>
<path d="M39.5225 60.2292L35.5225 60.2195L35.5128 64.2195L39.5128 64.2291L39.5225 60.2292ZM39.524 59.5774L39.5337 55.5774L35.5337 55.5677L35.5241 59.5677L39.524 59.5774ZM97.6718 59.7181L101.672 59.7277L101.681 55.7278L97.6815 55.7181L97.6718 59.7181ZM97.6702 60.3699L97.6605 64.3698L101.661 64.3795L101.67 60.3795L97.6702 60.3699ZM43.5224 60.2388L43.524 59.587L35.5241 59.5677L35.5225 60.2195L43.5224 60.2388ZM39.5143 63.5774L97.6621 63.7181L97.6815 55.7181L39.5337 55.5774L39.5143 63.5774ZM93.6718 59.7084L93.6702 60.3602L101.67 60.3795L101.672 59.7277L93.6718 59.7084ZM97.6799 56.3699L39.5322 56.2292L39.5128 64.2291L97.6605 64.3698L97.6799 56.3699Z" fill="#072AD8" mask="url(#path-32-inside-12_4183_32801)"/>
<mask id="path-34-inside-13_4183_32801" fill="white">
<path d="M96.9087 68.8121L41.0068 69.194L41.0113 69.8458L96.9132 69.4639L96.9087 68.8121Z"/>
</mask>
<path d="M96.9087 68.8121L41.0068 69.194L41.0113 69.8458L96.9132 69.4639L96.9087 68.8121Z" fill="#80B7FF"/>
<path d="M41.0068 69.194L40.9795 65.1941L36.9796 65.2214L37.0069 69.2213L41.0068 69.194ZM96.9087 68.8121L100.909 68.7848L100.881 64.7849L96.8813 64.8122L96.9087 68.8121ZM96.9132 69.4639L96.9405 73.4638L100.94 73.4365L100.913 69.4366L96.9132 69.4639ZM41.0113 69.8458L37.0114 69.8731L37.0387 73.873L41.0387 73.8457L41.0113 69.8458ZM41.0342 73.1939L96.9361 72.812L96.8813 64.8122L40.9795 65.1941L41.0342 73.1939ZM92.9088 68.8394L92.9132 69.4912L100.913 69.4366L100.909 68.7848L92.9088 68.8394ZM96.8858 65.464L40.9839 65.8459L41.0387 73.8457L96.9405 73.4638L96.8858 65.464ZM45.0112 69.8184L45.0067 69.1666L37.0069 69.2213L37.0114 69.8731L45.0112 69.8184Z" fill="#072AD8" mask="url(#path-34-inside-13_4183_32801)"/>
<path opacity="0.1" fill-rule="evenodd" clip-rule="evenodd" d="M110.123 44.2099C110.123 49.5085 105.841 53.8039 100.559 53.8039C95.2771 53.8039 90.9951 49.5085 90.9951 44.2099C90.9951 38.9113 95.2771 34.6159 100.559 34.6159C105.841 34.6159 110.123 38.9113 110.123 44.2099Z" fill="#008F3B"/>
<path d="M99.175 53.6563C104.777 53.6563 109.318 49.101 109.318 43.4817C109.318 37.8625 104.777 33.3072 99.175 33.3072C93.5733 33.3072 89.0322 37.8625 89.0322 43.4817C89.0322 49.101 93.5733 53.6563 99.175 53.6563Z" fill="#3ACD77"/>
<path opacity="0.1" d="M94.7727 42.123L98.5758 45.6206L103.964 37.6721L105.867 39.2623L98.5758 48.801L93.1875 42.76L94.7727 42.123Z" fill="#E5F8EC"/>
<path d="M94.176 42.123L97.9791 45.6206L103.367 37.6721L105.27 39.2623L97.9791 48.801L92.5908 42.76L94.176 42.123Z" fill="white"/>
<g opacity="0.3">
<ellipse cx="44.5164" cy="19.5359" rx="1.28104" ry="1.28105" fill="#B3D3FF"/>
<path d="M94.2843 11.472C94.1005 11.1015 93.5721 11.1015 93.3884 11.472L92.7184 12.8231C92.6648 12.9311 92.574 13.0161 92.4627 13.0625L91.1009 13.6299C90.6906 13.8009 90.6906 14.3821 91.1009 14.553L92.4627 15.1205C92.574 15.1668 92.6648 15.2519 92.7184 15.3599L93.3884 16.711C93.5721 17.0815 94.1005 17.0815 94.2843 16.711L94.9542 15.3599C95.0078 15.2519 95.0986 15.1668 95.2099 15.1205L96.5717 14.553C96.982 14.3821 96.982 13.8009 96.5718 13.6299L95.2099 13.0625C95.0986 13.0161 95.0078 12.9311 94.9542 12.8231L94.2843 11.472Z" fill="#80B7FF"/>
<path d="M50.7286 1.86415C50.5449 1.49365 50.0164 1.49365 49.8327 1.86415L49.1627 3.21526C49.1092 3.32328 49.0184 3.4083 48.9071 3.45467L47.5452 4.02212C47.1349 4.19306 47.1349 4.77426 47.5452 4.9452L48.9071 5.51265C49.0184 5.55902 49.1092 5.64405 49.1627 5.75206L49.8327 7.10317C50.0164 7.47367 50.5449 7.47367 50.7286 7.10317L51.3986 5.75206C51.4521 5.64405 51.5429 5.55902 51.6542 5.51265L53.0161 4.9452C53.4263 4.77426 53.4263 4.19306 53.0161 4.02212L51.6542 3.45467C51.5429 3.4083 51.4521 3.32328 51.3986 3.21526L50.7286 1.86415Z" fill="#80B7FF"/>
<path d="M37.2747 12.0785C37.089 11.7157 36.5704 11.7157 36.3846 12.0785L36.114 12.6071C36.0592 12.7142 35.9676 12.7979 35.8561 12.8429L35.4164 13.0204C34.9992 13.1888 34.9992 13.7794 35.4164 13.9477L35.8561 14.1252C35.9676 14.1702 36.0592 14.2539 36.114 14.361L36.3846 14.8896C36.5704 15.2524 37.089 15.2524 37.2747 14.8896L37.5453 14.361C37.6001 14.2539 37.6917 14.1702 37.8033 14.1252L38.2429 13.9477C38.6601 13.7794 38.6601 13.1888 38.2429 13.0204L37.8033 12.8429C37.6917 12.7979 37.6001 12.7142 37.5453 12.6071L37.2747 12.0785Z" fill="#80B7FF"/>
<ellipse cx="80.0651" cy="2.56208" rx="2.24183" ry="2.24183" fill="#FFAE85"/>
<ellipse cx="62.1305" cy="11.5294" rx="2.24183" ry="2.24183" fill="#B3D3FF"/>
<ellipse cx="94.1569" cy="28.8235" rx="2.24183" ry="2.24183" fill="#B3D3FF"/>
<ellipse cx="67.8951" cy="28.8235" rx="2.24183" ry="2.24183" fill="#FFAE85"/>
<path d="M80.3463 38.0677C80.8866 37.0228 81.1596 35.8602 81.1408 34.6839C81.122 33.5075 80.8121 32.3542 80.2387 31.327C80.1068 31.0944 79.957 30.8994 79.6708 30.8765C79.5528 30.8642 79.4338 30.8879 79.3295 30.9445C79.2252 31.0011 79.1405 31.0879 79.0864 31.1936C78.9318 31.5208 79.1218 31.9056 79.3953 32.1054C79.6896 32.3204 80.0667 32.2282 80.3386 32.0224C81.0418 31.4902 80.9621 30.5018 80.9365 29.7194C80.8812 28.0339 80.9935 26.2598 81.793 24.7393C82.5441 23.3106 83.9724 22.1529 85.6317 22.1005C85.9231 22.0914 85.9288 22.5444 85.6374 22.5536C83.9999 22.6053 82.6657 23.8609 82.0262 25.2953C81.6538 26.1853 81.4431 27.1346 81.4041 28.0986C81.375 28.5693 81.3717 29.0412 81.3834 29.5126C81.4142 29.9824 81.41 30.454 81.371 30.9232C81.2705 31.7332 80.7608 32.609 79.8629 32.68C79.0503 32.7443 78.3487 31.8285 78.6527 31.0625C78.7134 30.9221 78.8038 30.7966 78.9176 30.6944C79.0314 30.5922 79.1658 30.5158 79.3118 30.4705C79.4579 30.4251 79.6119 30.4118 79.7635 30.4316C79.9151 30.4513 80.0607 30.5036 80.1902 30.5848C80.5031 30.7847 80.6665 31.1451 80.8242 31.4678C81.3451 32.5324 81.6089 33.7045 81.5943 34.8897C81.5797 36.0749 81.2871 37.2401 80.7401 38.2915C80.6031 38.549 80.2091 38.3255 80.3463 38.0677L80.3463 38.0677Z" fill="#80B7FF"/>
<path d="M51.4997 20.6356C52.1708 21.5403 52.6182 22.5911 52.805 23.7018C52.9919 24.8126 52.9129 25.9516 52.5746 27.0256C52.4774 27.3285 52.3931 27.6881 52.064 27.813C51.9405 27.864 51.8033 27.8715 51.6749 27.8344C51.5465 27.7974 51.4344 27.7178 51.357 27.6088C51.1667 27.3185 51.2807 26.9313 51.4999 26.6907C51.7486 26.4177 52.1349 26.4297 52.4447 26.5858C53.2017 26.9672 53.3167 27.8997 53.4132 28.6495C53.633 30.358 54.0144 32.1194 55.0643 33.528C56.0358 34.8314 57.644 35.7507 59.3007 35.5332C59.5905 35.4951 59.5113 35.049 59.2229 35.0868C57.5799 35.3026 56.0299 34.2431 55.1797 32.9019C54.6879 32.0901 54.3386 31.2002 54.147 30.2708C54.0394 29.7957 53.9588 29.3148 53.8934 28.8323C53.8495 28.3576 53.7636 27.8877 53.6366 27.4282C53.3973 26.6851 52.7628 25.9695 51.9159 26.0244C51.1257 26.0756 50.5502 27.0375 50.9212 27.7544C51.2728 28.4339 52.2301 28.4809 52.6912 27.8907C52.9271 27.5888 53.0252 27.1361 53.1183 26.7713C53.4003 25.6732 53.4324 24.5257 53.2121 23.4132C52.9919 22.3008 52.5249 21.2518 51.8457 20.3435C51.6686 20.1115 51.3231 20.4042 51.4997 20.6356L51.4997 20.6356Z" fill="#FF7530"/>
</g>
<ellipse cx="44.1961" cy="19.2157" rx="1.28105" ry="1.28105" fill="#80B7FF"/>
<path d="M93.9639 11.1517C93.7802 10.7812 93.2518 10.7812 93.068 11.1517L92.3981 12.5028C92.3445 12.6108 92.2537 12.6959 92.1424 12.7422L90.7805 13.3097C90.3703 13.4806 90.3703 14.0618 90.7805 14.2328L92.1424 14.8002C92.2537 14.8466 92.3445 14.9316 92.3981 15.0396L93.068 16.3907C93.2518 16.7612 93.7802 16.7612 93.9639 16.3907L94.6339 15.0396C94.6875 14.9316 94.7783 14.8466 94.8895 14.8002L96.2514 14.2328C96.6617 14.0618 96.6617 13.4806 96.2514 13.3097L94.8895 12.7422C94.7783 12.6959 94.6875 12.6108 94.6339 12.5028L93.9639 11.1517Z" fill="#3289FF"/>
<path d="M50.4083 1.5439C50.2246 1.1734 49.6961 1.1734 49.5124 1.5439L48.8424 2.89501C48.7888 3.00302 48.6981 3.08805 48.5868 3.13442L47.2249 3.70187C46.8146 3.87281 46.8146 4.45401 47.2249 4.62495L48.5868 5.1924C48.6981 5.23877 48.7888 5.3238 48.8424 5.43181L49.5124 6.78292C49.6961 7.15342 50.2246 7.15342 50.4083 6.78292L51.0782 5.43181C51.1318 5.3238 51.2226 5.23877 51.3339 5.1924L52.6958 4.62495C53.106 4.45401 53.106 3.87281 52.6958 3.70187L51.3339 3.13442C51.2226 3.08805 51.1318 3.00302 51.0782 2.89501L50.4083 1.5439Z" fill="#3289FF"/>
<path d="M36.9544 11.7583C36.7687 11.3954 36.2501 11.3954 36.0643 11.7583L35.7937 12.2869C35.7389 12.3939 35.6473 12.4777 35.5358 12.5227L35.0961 12.7001C34.6789 12.8685 34.6789 13.4591 35.0961 13.6275L35.5358 13.8049C35.6473 13.8499 35.7389 13.9337 35.7937 14.0407L36.0643 14.5693C36.2501 14.9322 36.7687 14.9322 36.9544 14.5693L37.225 14.0407C37.2798 13.9337 37.3714 13.8499 37.483 13.8049L37.9226 13.6275C38.3398 13.4591 38.3398 12.8685 37.9226 12.7001L37.483 12.5227C37.3714 12.4777 37.2798 12.3939 37.225 12.2869L36.9544 11.7583Z" fill="#3289FF"/>
<ellipse cx="79.7448" cy="2.24183" rx="2.24183" ry="2.24183" fill="#FF8E54"/>
<ellipse cx="61.8102" cy="11.2091" rx="2.24183" ry="2.24183" fill="#80B7FF"/>
<circle cx="93.8366" cy="28.5033" r="2.24183" fill="#80B7FF"/>
<circle cx="67.5748" cy="28.5033" r="2.24183" fill="#FF8E54"/>
<path d="M80.026 37.7475C80.5663 36.7026 80.8393 35.54 80.8205 34.3636C80.8017 33.1873 80.4918 32.0339 79.9184 31.0068C79.7864 30.7742 79.6367 30.5791 79.3505 30.5563C79.2325 30.544 79.1135 30.5677 79.0092 30.6242C78.9049 30.6808 78.8202 30.7677 78.7661 30.8733C78.6115 31.2006 78.8015 31.5853 79.075 31.7852C79.3693 32.0002 79.7464 31.908 80.0183 31.7022C80.7215 31.1699 80.6418 30.1815 80.6161 29.3991C80.5609 27.7137 80.6732 25.9395 81.4727 24.4191C82.2238 22.9904 83.6521 21.8326 85.3113 21.7803C85.6028 21.7711 85.6085 22.2242 85.317 22.2334C83.6796 22.285 82.3454 23.5406 81.7059 24.9751C81.3335 25.865 81.1228 26.8143 81.0838 27.7783C81.0547 28.249 81.0513 28.721 81.063 29.1923C81.0939 29.6622 81.0897 30.1337 81.0507 30.603C80.9502 31.4129 80.4405 32.2888 79.5425 32.3598C78.7299 32.424 78.0284 31.5082 78.3323 30.7422C78.3931 30.6019 78.4835 30.4763 78.5973 30.3741C78.711 30.272 78.8455 30.1956 78.9915 30.1502C79.1375 30.1049 79.2916 30.0916 79.4432 30.1113C79.5948 30.1311 79.7404 30.1833 79.8699 30.2646C80.1828 30.4645 80.3462 30.8248 80.5039 31.1475C81.0248 32.2121 81.2886 33.3842 81.274 34.5694C81.2594 35.7547 80.9668 36.9199 80.4198 37.9713C80.2828 38.2287 79.8888 38.0053 80.026 37.7475L80.026 37.7475Z" fill="#3289FF"/>
<path d="M51.1794 20.3154C51.8505 21.2201 52.2979 22.2709 52.4847 23.3816C52.6716 24.4923 52.5926 25.6313 52.2542 26.7053C52.1571 27.0083 52.0728 27.3679 51.7437 27.4927C51.6202 27.5437 51.483 27.5513 51.3546 27.5142C51.2261 27.4771 51.1141 27.3976 51.0366 27.2885C50.8464 26.9982 50.9603 26.611 51.1796 26.3704C51.4283 26.0974 51.8146 26.1095 52.1244 26.2656C52.8814 26.6469 52.9964 27.5795 53.0929 28.3293C53.3127 30.0378 53.694 31.7991 54.744 33.2078C55.7155 34.5111 57.3237 35.4305 58.9804 35.213C59.2702 35.1749 59.191 34.7287 58.9026 34.7666C57.2596 34.9823 55.7096 33.9228 54.8594 32.5817C54.3676 31.7699 54.0183 30.88 53.8267 29.9505C53.7191 29.4754 53.6385 28.9946 53.5731 28.512C53.5292 28.0373 53.4433 27.5675 53.3163 27.1079C53.077 26.3649 52.4425 25.6493 51.5955 25.7042C50.8054 25.7554 50.2299 26.7172 50.6009 27.4342C50.9525 28.1136 51.9098 28.1607 52.3709 27.5704C52.6068 27.2685 52.7049 26.8159 52.798 26.451C53.08 25.3529 53.1121 24.2054 52.8918 23.093C52.6715 21.9805 52.2046 20.9315 51.5253 20.0232C51.3483 19.7912 51.0028 20.0839 51.1793 20.3153L51.1794 20.3154Z" fill="#FF5D0B"/>
</svg>
